<svg width="239" height="333" viewBox="0 0 239 333" fill="none" xmlns="http://www.w3.org/2000/svg">
<path d="M226.721 0H11.3896C5.09932 0 0 5.09281 0 11.3751V321.223C0 327.506 5.09932 332.598 11.3896 332.598H226.721C233.011 332.598 238.11 327.506 238.11 321.223V11.3751C238.11 5.09281 233.011 0 226.721 0Z" fill="white"/>
<path d="M220.873 18.1479H17.2363V314.449H220.873V18.1479Z" fill="#C8102E" stroke="#C8102E" stroke-width="3.77953"/>
<path d="M216.557 22.459H21.5542V310.142H216.557V22.459Z" stroke="#FFFBFB" stroke-width="1.67827"/>
<path d="M176.137 62.9805H61.9746V269.62H176.137V62.9805Z" stroke="#FFFBFB" stroke-width="0.824746"/>
<path d="M64.6177 65.5898V267.01H173.495V65.5898H64.6177ZM119.057 69.1484C130.971 69.1485 142.397 73.8761 150.822 82.291C159.246 90.706 163.979 102.119 163.979 114.02C163.969 121.309 162.181 128.487 158.77 134.932C165.841 143.862 169.688 154.913 169.69 166.299C169.671 177.672 165.815 188.707 158.745 197.621C162.172 204.077 163.969 211.272 163.979 218.58C163.979 230.481 159.246 241.894 150.822 250.309C142.397 258.724 130.971 263.451 119.057 263.451C113.158 263.451 107.316 262.291 101.866 260.036C96.4153 257.781 91.4631 254.476 87.2915 250.309C83.1199 246.142 79.8104 241.196 77.5527 235.752C75.2951 230.308 74.1333 224.473 74.1333 218.58C74.1432 211.29 75.9311 204.113 79.3423 197.668C72.2711 188.737 68.4236 177.685 68.4224 166.299C68.4418 154.926 72.2978 143.893 79.3677 134.979C75.9402 128.522 74.1434 121.327 74.1333 114.02C74.1333 108.127 75.2951 102.292 77.5527 96.8477C79.8104 91.4035 83.1199 86.4567 87.2915 82.29C91.4631 78.1234 96.4153 74.8184 101.866 72.5635C107.316 70.3086 113.158 69.1482 119.057 69.1484Z" stroke="#FFFBFB" stroke-width="0.824747"/>
<path d="M177.406 60.4058H60.7054C60.0429 60.4058 59.5059 60.9423 59.5059 61.6039V270.996C59.5059 271.658 60.0429 272.194 60.7054 272.194H177.406C178.068 272.194 178.605 271.658 178.605 270.996V61.6039C178.605 60.9423 178.068 60.4058 177.406 60.4058Z" stroke="#FFFBFB" stroke-width="0.824746"/>
<path opacity="0.99" d="M79.3562 197.609C72.3057 188.692 68.4707 177.662 68.4707 166.3C68.4707 154.947 72.2996 143.925 79.3396 135.012" stroke="#FFFBFB" stroke-width="1.69438"/>
<path opacity="0.99" d="M158.754 134.991C165.805 143.908 169.64 154.938 169.64 166.3C169.64 177.653 165.811 188.675 158.771 197.589" stroke="#FFFBFB" stroke-width="1.69438"/>
<path opacity="0.99" d="M80.6987 195.246C74.3921 186.911 70.9799 176.748 70.98 166.3C70.98 155.848 74.3953 145.682 80.7065 137.344" stroke="#FFFBFB" stroke-width="0.806018"/>
<path opacity="0.99" d="M157.413 137.355C163.719 145.691 167.131 155.853 167.131 166.3C167.131 176.751 163.717 186.916 157.407 195.253" stroke="#FFFBFB" stroke-width="0.806018"/>
<path opacity="0.99" d="M119.056 173.701C143.874 173.701 163.992 193.794 163.992 218.579C163.992 243.365 143.874 263.458 119.056 263.458C94.239 263.458 74.1206 243.365 74.1206 218.579C74.1206 193.794 94.239 173.701 119.056 173.701Z" stroke="#FFFBFB" stroke-width="1.50519"/>
<path d="M119.056 158.899C94.2388 158.899 74.1204 138.806 74.1204 114.02C74.1204 89.2345 94.2388 69.1416 119.056 69.1416C143.874 69.1416 163.992 89.2345 163.992 114.02C163.992 138.806 143.874 158.899 119.056 158.899Z" stroke="white" stroke-width="1.50519"/>
</svg>
